<?xml version="1.0" standalone="no"?>
<!DOCTYPE svg PUBLIC "-//W3C//DTD SVG 20010904//EN"
 "http://www.w3.org/TR/2001/REC-SVG-20010904/DTD/svg10.dtd">
<svg version="1.0" xmlns="http://www.w3.org/2000/svg"
 width="640.000000pt" height="640.000000pt" viewBox="0 0 640.000000 640.000000"
 preserveAspectRatio="xMidYMid meet">
<metadata>
Created by potrace 1.16, written by Peter Selinger 2001-2019
</metadata>
<g transform="translate(0.000000,640.000000) scale(0.100000,-0.100000)"
fill="#000000" stroke="none">
<path d="M785 5491 c-28 -12 -61 -51 -68 -80 -3 -13 0 -39 8 -58 25 -59 50
-63 350 -63 190 0 265 -3 265 -11 0 -10 231 -712 715 -2179 79 -239 189 -573
245 -741 77 -236 106 -311 126 -330 l26 -24 1155 -3 c1249 -2 1198 -4 1231 49
8 12 51 132 97 268 46 135 115 340 155 455 39 115 69 210 67 213 -3 2 -40 -5
-83 -17 -166 -44 -396 -46 -553 -5 -367 95 -657 355 -796 713 l-28 72 -821 0
-822 0 -36 110 -36 110 74 0 c83 0 123 15 141 52 24 46 20 78 -13 117 l-25 30
-122 3 -122 3 -193 585 c-107 322 -203 611 -214 643 -34 95 -22 92 -388 94
-173 1 -324 -2 -335 -6z"/>
<path d="M4695 4924 c-370 -55 -647 -303 -735 -659 -19 -77 -22 -108 -18 -225
4 -118 9 -147 37 -230 18 -52 46 -119 63 -150 156 -275 436 -440 748 -440 176
0 326 46 474 144 262 175 407 479 375 788 -12 116 -32 189 -83 293 -108 225
-319 398 -556 455 -83 20 -245 33 -305 24z m-117 -498 c15 -8 67 -55 117 -105
49 -50 93 -91 98 -91 4 0 47 39 95 88 104 105 128 122 169 122 39 0 89 -40 98
-79 10 -47 -17 -90 -119 -190 l-95 -95 103 -106 c117 -120 130 -147 98 -208
-23 -45 -76 -68 -120 -51 -15 5 -73 56 -129 112 l-103 101 -108 -107 c-106
-104 -110 -107 -154 -107 -73 0 -120 59 -103 128 4 16 50 71 111 132 l104 104
-99 101 c-113 114 -125 134 -117 180 13 68 91 104 154 71z"/>
<path d="M2533 4173 c-12 -2 -33 -16 -47 -30 -36 -35 -37 -103 -2 -138 32 -32
72 -38 221 -34 l127 4 29 33 c48 53 34 122 -31 154 -28 15 -59 18 -155 17 -66
-1 -130 -4 -142 -6z"/>
<path d="M3407 4170 l-239 -5 -24 -28 c-26 -30 -32 -83 -14 -118 24 -44 56
-49 297 -49 l228 0 -1 100 c-1 55 -3 101 -5 103 -2 1 -111 0 -242 -3z"/>
<path d="M2632 1705 c-210 -46 -352 -264 -308 -474 19 -89 46 -142 109 -208
73 -78 157 -116 267 -121 135 -7 250 41 334 140 204 238 71 610 -238 667 -73
13 -84 13 -164 -4z"/>
<path d="M4212 1710 c-70 -15 -148 -55 -201 -105 -211 -197 -160 -531 100
-666 61 -32 69 -34 174 -34 104 0 114 2 176 32 155 77 252 243 235 404 -16
158 -118 295 -260 348 -62 23 -166 33 -224 21z"/>
</g>
</svg>
